<svg xmlns="http://www.w3.org/2000/svg" xmlns:xlink="http://www.w3.org/1999/xlink" xml:space="preserve" style="shape-rendering:geometricPrecision;text-rendering:geometricPrecision;image-rendering:optimizeQuality;" viewBox="0 0 100 125" x="0px" y="0px" fill-rule="evenodd" clip-rule="evenodd"><defs><style type="text/css">
   
    .fil0 {fill:black}
   
  </style></defs><g><path class="fil0" d="M9.22566 57.3867c1.22718,0.338979 1.80474,1.30985 3.37325,0.296459 0.324806,-0.210238 1.11261,0.0625989 0.69095,0.650793 2.63624,-0.844495 3.64491,0.129922 5.42721,1.78584l-0.14882 -1.43387 0.942527 0.543311 -0.334255 -1.06772 2.08821 1.11024 0 -1.09725 1.50946 0.411027 -0.45709 -1.24962 1.03229 -0.0307089c-0.314176,-0.173623 -0.634257,-0.190159 -0.751187,-0.59528 -0.113387,-0.394491 0.122836,-0.725203 0.450004,-0.90355l-0.921267 -0.275199 1.33584 -1.03465 -1.42324 -0.311813 0.780715 -1.00276c-2.98703,0.330711 -5.93509,-0.500791 -8.90558,-0.160631 -2.41655,0.27638 -3.84924,1.89805 -4.5024,4.06539l-0.186616 0.300002zm31.1495 18.6474c-1.05001,-1.79647 -0.758274,-3.60712 0.455909,-5.24532 1.34292,-1.81301 3.22443,-2.28781 4.88272,-2.59136 3.52916,1.11143 6.74297,2.67522 9.95205,4.49177 1.92757,1.09135 6.2469,1.38426 8.45558,1.11024 0.144096,-0.0177167 0.535044,-0.0732289 0.768904,-0.0755911 0.477169,1.59096 1.46694,2.61616 1.52363,2.95278 -0.230317,0.152363 -1.01576,0.144096 -1.23899,0.133466 -4.2272,-0.2126 -6.10044,-2.53703 -9.72173,-2.62325 -5.8217,-0.0307089 -9.38511,3.98507 -15.0781,1.84726zm0.295278 0.870479c6.9036,1.75159 8.84416,-2.15789 14.7663,-2.0138 2.86301,0.0685045 3.98035,1.35828 6.68745,2.08821 3.32955,0.897645 6.10871,0.817329 4.55319,-1.27206 -1.86143,-2.50041 -0.37205,-2.88782 -2.64215,-2.60553 -2.43309,0.301183 -6.44769,-0.133466 -8.02329,-1.0252 -2.73427,-1.54726 -5.43075,-2.98939 -9.16306,-4.24964 0.661423,-0.366145 1.09607,-1.02048 1.14804,-2.27246 10.2213,-9.34023 19.2427,-18.6852 26.3282,-29.3991 3.87287,0.759455 5.80753,-6.23509 8.13077,-8.88787 2.48033,-1.11615 6.56816,-2.51931 7.4788,-3.60003l-5.92091 0.936622c2.79451,-1.22127 7.8036,-2.29962 9.13472,-4.02169l-10.0383 2.68585c2.93152,-1.15158 9.21858,-2.87364 10.0442,-4.05948l-12.4288 3.39924c3.23388,-1.54017 11.5371,-4.22247 12.0225,-5.3339l-14.204 4.92996c3.02246,-2.00553 9.58,-4.94059 10.5674,-6.83982l-19.5037 9.92016c2.96105,-2.38112 7.67132,-4.94177 8.88196,-7.14573 -6.73824,4.01224 -13.1718,9.33078 -20.1084,12.2517 -13.7127,4.20121 -13.2981,7.71502 -18.3072,13.3607 -5.92682,6.67919 -9.72173,10.1611 -16.2261,11.3375l1.23662 -0.957882 -0.746463 -0.162993c3.70397,-0.790164 6.46422,-2.41892 9.39574,-5.06933 2.45199,-2.21577 5.73784,-5.80044 7.77171,-8.53353 2.16262,-2.9079 3.49491,-4.83547 6.78785,-6.85872 2.5323,-1.55434 5.50398,-2.70002 8.37881,-3.63192l-8.9292 0.288191c3.11105,-0.607091 6.19139,-1.06536 9.57173,-3.02246 -3.30593,0.311813 -6.61304,0.624808 -9.91898,0.937803 2.74608,-0.833865 5.51225,-1.52482 7.99022,-4.24019 -3.1075,0.799613 -6.21501,1.60041 -9.32251,2.40002 2.47915,-1.4693 5.13311,-2.76498 6.91187,-4.93587 -3.19136,1.27442 -6.38273,2.54884 -9.57409,3.82444 2.10947,-1.65592 4.49885,-2.92679 5.48744,-6.12406 -3.79727,2.15671 -7.59455,4.31342 -11.3918,6.47131 2.9079,-2.52758 6.66856,-4.85437 7.09494,-7.9666 -3.29176,2.07639 -6.58352,4.15279 -9.87409,6.22918 1.18111,-1.69844 2.0445,-3.51144 1.77875,-5.73666 -3.0201,3.88231 -5.30437,7.97014 -6.87879,12.5103 -2.99057,0.551579 -4.62878,2.39529 -2.38112,7.08195 0.487799,4.98193 -0.872842,9.84811 -3.19018,14.6552 -3.14884,0.824416 -6.99927,-0.291735 -10.2119,0.0755911 -2.70475,0.309451 -4.46342,2.10592 -5.19807,4.91224 -0.544492,0.211419 -1.03583,0.473626 -1.33466,1.03229 -1.14332,1.83427 0.0153545,4.03586 1.85435,4.82838 0.490161,0.2126 1.06182,0.0732289 0.863393,-0.675596 -0.246852,-0.331892 -0.375594,-0.662604 -0.394491,-0.874023 0.826778,-0.61654 1.96419,-1.27206 2.90553,-1.6571 0.0389767,-0.0448822 0.121655,-0.672053 -0.13819,-0.667328 3.42522,-1.4256 3.69806,-0.564571 6.24218,1.79057 1.32757,1.97246 3.18191,3.68625 4.80594,5.26776 1.07599,1.04883 -3.39215,5.7213 -6.60123,10.5639 -0.315357,0.200789 -1.86734,0.702761 -2.50514,0.700399 -0.594099,-0.128741 -2.90317,-1.61576 -4.31106,-1.4008 -0.819691,0.0354333 -1.43033,0.348428 -1.79529,1.10434 -0.0685045,0.142915 -0.0992134,0.322443 -0.09567,0.49961 -0.08504,0.285829 -0.530319,0.600005 -0.30827,1.52836 -0.990953,1.6134 0.434649,3.89176 1.79647,3.50436l0.204332 -0.0578745 0.72284 0.960244 0.14882 -0.800794c0.346066,1.97718 2.92561,2.11183 3.88113,1.25434 0.679139,-0.609454 1.07245,-0.846857 1.40198,-1.77639 1.25434,-0.0259845 3.82208,-0.972055 3.56459,-2.47915 4.64413,-1.27206 10.4635,-2.82758 11.2194,-6.47958 2.66577,1.67718 7.08195,2.91262 9.90716,3.50436zm-17.3399 -23.2325l-0.0354333 0.0673234 -0.0141733 -0.00354333 0.0496067 -0.06378zm-11.0824 5.04689c1.19529,-0.479531 1.00158,-1.0382 0.505516,-0.830321 -0.509059,0.32953 -1.14095,0.550398 -1.78466,0.439374 -0.890558,-0.152363 -1.14213,-0.596461 -2.0634,-0.73347 -0.47835,0.158269 -0.735833,0.389767 -0.890558,0.625989 0.396854,-0.00826778 0.635438,0.513784 0.751187,0.548036 0.38268,0.114568 2.03387,-0.137009 1.4445,1.09961 -0.249215,0.522051 -0.781896,0.778353 -0.975598,1.17402 0.931897,-0.663785 1.48938,-1.10434 2.54175,-1.56025 0.171261,-0.20197 -1.06536,0.129922 -0.546855,-0.315357 0.213781,-0.184253 0.628351,-0.298821 1.01812,-0.447641zm6.52919 21.6852c0.432287,-0.385042 -0.838589,-2.24647 -0.891739,-2.4449 -0.387405,0.231498 -2.56774,0.865755 -2.94805,0.661423 -0.537406,-0.289372 -3.36026,-1.62049 -4.41736,-1.36182 -0.884653,0.0366145 -1.54489,0.349609 -1.9382,1.10552 -0.155907,0.300002 -0.133466,0.760636 0.0389767,1.01576 -1.05709,1.19056 0.108662,2.92089 0.806699,2.72128 -0.501972,-0.577564 -0.868117,-1.12796 -0.481894,-1.83309 0.459452,0.237403 0.644887,-0.348428 0.80788,-0.500791 0.506697,-0.471264 1.79765,-0.740557 2.43309,-0.40394 -0.179529,0.451185 -0.741738,0.290553 -1.1941,0.338979 -0.964968,0.154726 -1.376,1.57324 -0.845676,2.27836 0.0507878,-0.268112 -0.0389767,-0.856306 0.34016,-1.12796 0.161812,0.167718 0.447641,0.25512 0.525595,-0.00472445 0.124017,-0.418114 1.12914,-0.597643 1.73623,-0.158269 0.538587,0.390948 1.02875,0.119292 1.22954,0.41457 -0.455909,0.168899 -0.894102,1.11615 -0.288191,1.34765 0.672053,0.257482 -1.37718,1.84017 -2.31498,0.210238 0.209057,1.71025 2.39529,1.28623 2.72837,0.951976 0.647249,-0.561028 1.02048,-0.662604 1.37009,-2.01852 0.689769,0.226773 2.42837,-0.219687 3.30357,-1.19174zm-7.03706 -2.13781c-0.00826778,0.0720478 -2.69648,0.762998 -2.86656,0.868117 -0.0177167,0.0153545 -0.271656,-0.681501 0.888196,-1.07127 0.261026,0.500791 0.757093,-0.155907 1.97836,0.203151zm0.954338 3.74294c-0.200789,0.137009 -0.460634,0.243309 -0.73347,0.261026l-0.481894 -0.83977c0.06378,-0.0708667 0.119292,-0.155907 0.161812,-0.256301 0.187797,-0.0791345 0.545674,-0.0224411 0.694494,0.0862212 0.141733,0.101576 0.289372,0.181891 0.44646,0.240947 -0.0555122,0.166537 -0.0862212,0.338979 -0.0874023,0.507878zm-3.92838 -23.5691c0.258663,-0.121655 1.07127,0.131103 0.603548,0.224411 -0.239766,0.0472445 -0.947252,-0.0625989 -0.603548,-0.224411zm2.99766 -1.93348c0.288191,-0.134647 0.517327,0.262207 0.230317,0.396854 -0.288191,0.135828 -0.517327,-0.262207 -0.230317,-0.396854zm-1.55198 0.944889c0.545674,-0.633076 1.50946,-0.930716 1.68545,-1.51419 0.667328,-0.0141733 1.21891,-0.172442 1.73623,-0.289372 -0.969693,0.960244 -0.210238,2.17679 -3.42168,1.80356zm1.75631 -1.26851c0.442917,-0.153545 0.911818,0.607091 0.146458,0.964968 -0.152363,0.0720478 -0.416932,0.0708667 -0.556304,-0.01063 0.385042,0.392129 1.36064,-0.05315 1.11024,-0.644887 -0.132285,-0.312995 -0.389767,-0.490161 -0.700399,-0.309451zm0.0897645 0.949614c0.851582,-0.399216 0.115749,-1.38544 -0.535044,-0.497248 -0.321262,0.439374 0.207876,0.651974 0.535044,0.497248zm-4.19295 1.40434c0.359058,-0.29764 0.540949,0.392129 0.86103,0.468901 0.676777,0.160631 1.23899,-0.12756 1.33702,0.428744 -0.0862212,1.05828 -1.99844,1.20828 -0.719297,2.91735 0.0625989,0.0767723 0.0732289,0.243309 -0.135828,0.128741 -1.34883,-0.546855 -2.41774,-2.50986 -1.34292,-3.94373z"/></g><text x="0" y="115" fill="#000000" font-size="5px" font-weight="bold" font-family="'Helvetica Neue', Helvetica, Arial-Unicode, Arial, Sans-serif">Created by Rfourtytwo</text><text x="0" y="120" fill="#000000" font-size="5px" font-weight="bold" font-family="'Helvetica Neue', Helvetica, Arial-Unicode, Arial, Sans-serif">from the Noun Project</text></svg>